<?xml version="1.0" standalone="no"?>
<!DOCTYPE svg PUBLIC "-//W3C//DTD SVG 20010904//EN"
 "http://www.w3.org/TR/2001/REC-SVG-20010904/DTD/svg10.dtd">
<svg version="1.0" xmlns="http://www.w3.org/2000/svg"
 width="1304.000000pt" height="773.000000pt" viewBox="0 0 1304.000000 773.000000"
 preserveAspectRatio="xMidYMid meet">
<metadata>
Created by potrace 1.16, written by Peter Selinger 2001-2019
</metadata>
<g transform="translate(0.000000,773.000000) scale(0.100000,-0.100000)"
fill="#ffffff" stroke="none">
<path d="M3819 7540 c-22 -22 -44 -40 -49 -40 -16 0 -71 -52 -86 -82 -20 -38
-12 -70 22 -88 14 -8 34 -31 44 -51 11 -20 26 -39 33 -42 8 -3 25 -27 37 -53
13 -26 35 -61 50 -78 15 -17 31 -45 34 -63 4 -17 21 -52 38 -78 25 -38 35 -70
55 -188 l24 -142 -21 -130 c-14 -93 -26 -137 -40 -155 -12 -14 -30 -40 -42
-58 -11 -19 -38 -45 -59 -58 -22 -13 -39 -28 -39 -33 0 -21 -246 -88 -371
-101 -58 -6 -688 -10 -1647 -10 l-1553 0 -23 -23 c-14 -14 -26 -41 -30 -68
-13 -89 -25 -238 -32 -374 -5 -117 -3 -143 9 -160 15 -20 27 -20 1574 -20
1716 0 1885 4 1990 49 33 13 90 32 128 41 38 9 79 24 90 35 11 10 36 26 56 34
78 32 272 230 296 301 6 17 22 48 37 69 14 21 26 42 26 46 0 5 13 82 30 172
34 185 38 307 15 420 -9 40 -23 120 -31 178 -10 70 -23 119 -39 145 -13 22
-30 67 -38 99 -9 32 -27 74 -41 94 -14 21 -33 55 -42 77 -9 22 -29 55 -45 73
-16 18 -29 39 -29 47 0 7 -18 35 -40 60 -22 25 -40 51 -40 56 0 5 -17 27 -37
48 -21 21 -46 50 -56 65 -15 22 -25 26 -68 26 -46 0 -54 -4 -90 -40z"/>
<path d="M7013 7570 c-59 -5 -96 -15 -132 -34 -28 -14 -68 -32 -90 -40 -22 -7
-56 -26 -76 -42 -89 -72 -151 -130 -166 -153 -9 -14 -24 -33 -34 -41 -10 -8
-26 -33 -37 -55 -10 -22 -29 -55 -43 -73 -13 -19 -27 -55 -31 -80 -4 -26 -18
-81 -31 -122 -36 -109 -36 -275 0 -386 14 -43 29 -98 32 -121 4 -24 18 -59 31
-78 13 -20 31 -50 40 -68 27 -53 135 -168 191 -204 28 -18 54 -37 58 -43 3 -5
34 -18 68 -29 34 -11 85 -30 112 -43 46 -21 63 -23 215 -23 163 0 166 0 235
31 39 18 87 37 107 44 21 6 40 16 44 21 3 5 29 24 58 43 69 44 135 128 191
246 57 118 65 157 65 332 0 77 5 148 10 159 17 31 37 22 55 -25 10 -25 28 -55
41 -67 13 -12 31 -45 40 -73 9 -28 27 -64 40 -81 12 -16 30 -61 39 -100 9 -38
27 -89 41 -112 17 -30 29 -73 39 -150 8 -59 24 -146 35 -193 12 -54 22 -145
26 -252 9 -207 5 -218 -82 -218 -30 0 -112 9 -182 19 -289 44 -510 49 -692 15
-41 -8 -131 -21 -200 -29 -96 -12 -140 -23 -189 -45 -35 -17 -81 -33 -103 -36
-21 -4 -53 -17 -71 -30 -18 -12 -51 -32 -75 -43 -60 -28 -165 -124 -196 -179
-15 -26 -35 -58 -46 -72 -21 -28 -40 -116 -47 -229 -7 -106 22 -272 56 -316
14 -19 37 -52 50 -74 29 -47 136 -136 189 -157 20 -8 62 -27 92 -42 53 -26 61
-27 220 -27 l166 0 84 39 c118 55 170 109 211 218 42 114 42 172 -1 283 -37
93 -77 139 -176 200 -47 29 -54 30 -159 30 l-110 0 -70 -42 c-39 -22 -80 -52
-92 -65 -25 -26 -53 -88 -53 -116 0 -10 -6 -27 -14 -38 -14 -17 -16 -18 -31
-3 -21 21 -31 121 -16 174 17 62 104 150 171 174 30 10 74 28 97 41 60 31 346
60 593 59 224 0 549 -30 585 -53 34 -22 39 -51 31 -170 -5 -74 -14 -117 -33
-161 -13 -33 -34 -91 -44 -130 -11 -38 -29 -81 -39 -95 -11 -14 -31 -47 -45
-75 -32 -64 -106 -152 -159 -188 -22 -16 -52 -39 -66 -52 -14 -14 -41 -30 -60
-36 -19 -7 -49 -23 -65 -35 -17 -13 -68 -32 -115 -42 -47 -11 -125 -31 -175
-45 -84 -24 -113 -27 -410 -35 -306 -10 -325 -11 -435 -39 -63 -17 -146 -35
-183 -41 -42 -6 -83 -20 -105 -35 -21 -14 -60 -30 -88 -37 -29 -6 -61 -20 -71
-30 -11 -10 -38 -27 -60 -39 -48 -24 -189 -162 -199 -194 -4 -12 -19 -40 -34
-62 -21 -30 -34 -73 -54 -171 -33 -163 -33 -223 0 -399 22 -117 31 -148 59
-190 18 -27 36 -60 39 -71 4 -12 44 -59 89 -105 109 -111 135 -133 182 -157
22 -11 49 -29 59 -41 11 -12 36 -26 56 -31 20 -5 56 -23 81 -39 24 -17 66 -35
92 -41 26 -5 69 -21 95 -35 29 -15 92 -32 167 -44 66 -11 139 -27 163 -35 95
-34 208 -41 647 -41 448 1 518 6 639 46 34 11 102 26 153 33 59 9 107 23 135
39 24 14 66 30 94 36 29 6 86 28 128 51 42 22 83 40 90 40 8 0 19 7 27 16 7 9
38 28 68 44 31 15 67 40 80 54 14 14 30 26 37 26 12 0 53 36 153 135 104 103
118 119 134 151 9 17 22 34 30 37 8 3 26 31 41 64 15 32 36 67 46 78 10 11 24
43 31 70 6 28 24 73 39 100 19 34 31 78 39 135 7 47 22 121 34 165 19 71 21
104 21 285 -1 174 -4 218 -22 290 -12 47 -26 128 -32 180 -8 69 -19 112 -40
156 -16 34 -32 80 -36 103 -4 23 -19 61 -35 84 -15 23 -37 67 -49 99 -11 31
-27 59 -35 62 -8 3 -24 24 -35 47 -45 87 -224 279 -315 337 -22 14 -52 37 -68
51 -15 14 -49 36 -76 50 -27 14 -71 41 -99 60 l-51 33 1 263 c0 145 -2 267 -5
272 -3 5 -11 74 -17 152 -8 107 -17 163 -36 220 -15 42 -35 116 -45 166 -10
49 -27 101 -38 116 -11 15 -27 55 -36 90 -9 35 -25 73 -35 84 -10 11 -28 45
-40 77 -11 31 -28 62 -36 69 -9 7 -26 34 -40 60 -13 26 -29 51 -35 54 -6 4
-26 30 -44 59 -65 100 -232 256 -349 326 -23 14 -55 35 -70 47 -15 12 -44 25
-65 29 -20 3 -64 19 -98 36 -52 24 -82 31 -180 38 -132 11 -239 11 -360 0z
m256 -519 c36 -15 77 -31 91 -34 32 -8 119 -107 131 -150 15 -54 11 -185 -8
-224 -23 -49 -143 -150 -190 -160 -21 -4 -117 -8 -213 -7 -194 0 -207 3 -290
70 -53 42 -64 65 -80 157 -9 51 -9 84 0 139 11 65 17 76 63 125 27 29 55 53
61 53 6 0 36 12 66 26 73 34 129 44 224 38 56 -3 98 -13 145 -33z m1331 -2068
c24 -16 103 -82 125 -104 94 -95 155 -178 190 -259 8 -19 24 -49 35 -66 11
-16 31 -86 45 -155 15 -68 31 -146 37 -174 14 -66 4 -269 -15 -321 -8 -23 -23
-79 -32 -125 -11 -53 -26 -96 -41 -116 -13 -18 -33 -52 -43 -76 -20 -47 -37
-67 -139 -169 -113 -114 -121 -120 -170 -143 -26 -12 -56 -32 -66 -44 -11 -12
-39 -27 -63 -33 -24 -6 -59 -23 -78 -38 -22 -17 -57 -32 -97 -39 -35 -7 -81
-23 -103 -35 -48 -28 -64 -32 -178 -46 -49 -6 -137 -23 -195 -38 l-107 -27
-420 0 c-409 1 -422 1 -500 24 -44 13 -127 31 -184 41 -67 12 -114 26 -132 39
-16 12 -52 30 -82 41 -69 26 -191 143 -207 198 -12 45 -13 163 -1 214 8 35 97
138 119 138 5 0 26 13 46 29 24 19 54 32 84 36 26 4 112 17 192 30 80 13 216
26 305 30 88 3 254 13 370 21 180 13 217 18 262 38 28 14 86 32 127 41 41 9
89 27 107 41 18 13 48 29 67 35 19 6 58 29 86 50 28 21 55 39 59 39 9 0 100
93 159 161 61 71 109 140 125 178 9 20 26 49 39 64 13 16 31 54 40 85 9 31 27
72 40 92 13 20 29 71 38 120 18 98 51 197 73 223 20 22 51 22 83 0z"/>
<path d="M11853 6160 c-34 -5 -84 -18 -110 -30 -26 -12 -77 -30 -113 -40 -36
-9 -87 -31 -114 -48 -28 -18 -55 -32 -62 -32 -7 0 -27 -12 -45 -27 -18 -16
-49 -39 -70 -53 -120 -81 -291 -263 -336 -357 -8 -19 -24 -38 -33 -43 -10 -6
-26 -33 -36 -62 -9 -29 -27 -66 -40 -81 -13 -15 -28 -47 -35 -70 -6 -23 -26
-73 -44 -112 -19 -38 -37 -95 -40 -125 -4 -30 -18 -83 -32 -118 -31 -80 -39
-137 -53 -407 -10 -184 -9 -266 4 -503 15 -266 18 -289 45 -370 17 -48 35
-122 41 -165 6 -49 19 -94 34 -120 14 -23 32 -73 40 -110 9 -38 27 -83 40
-100 13 -18 31 -58 40 -89 9 -31 21 -60 27 -64 6 -3 24 -33 39 -66 16 -33 38
-70 49 -82 11 -12 27 -38 35 -58 9 -20 21 -40 27 -43 6 -4 26 -31 44 -59 28
-44 132 -154 260 -276 17 -15 48 -37 71 -48 22 -11 46 -27 53 -35 6 -8 26 -20
44 -27 18 -7 64 -28 103 -47 64 -31 80 -35 185 -40 168 -8 200 -1 261 56 47
45 70 87 115 206 10 26 13 64 11 109 -4 80 -13 90 -97 106 -31 7 -75 23 -98
36 -23 13 -70 33 -104 43 -34 11 -73 31 -88 44 -14 14 -43 30 -63 37 -21 6
-57 27 -80 45 -24 19 -65 51 -91 72 -61 48 -191 177 -226 223 -14 19 -34 41
-44 48 -9 7 -24 28 -33 45 -9 18 -29 46 -44 64 -15 17 -34 49 -40 70 -7 21
-23 51 -36 66 -21 25 -44 84 -44 113 0 6 -14 37 -31 69 -22 41 -36 90 -49 169
-11 61 -26 131 -35 156 -42 117 -42 585 0 700 9 25 25 92 35 149 12 68 27 116
43 140 13 20 30 54 37 76 7 22 27 63 44 90 17 28 39 64 47 80 11 23 21 30 44
30 l30 0 6 -180 c5 -148 10 -189 26 -230 11 -27 26 -81 32 -119 9 -48 24 -89
52 -134 21 -36 39 -70 39 -76 0 -6 11 -22 25 -36 13 -14 54 -55 90 -92 35 -38
71 -68 77 -68 7 0 32 -15 55 -34 29 -22 59 -36 90 -41 27 -4 70 -16 98 -26
113 -44 314 -44 415 -1 25 11 67 23 93 27 31 4 59 16 80 34 18 16 48 36 67 46
45 23 136 119 162 170 12 22 31 52 43 67 13 15 28 51 34 79 6 28 19 63 30 78
28 41 31 57 47 221 18 196 18 309 -1 483 -12 113 -19 145 -40 181 -14 24 -32
66 -40 93 -8 27 -24 58 -36 69 -12 10 -30 36 -40 57 -34 66 -195 211 -248 223
-14 4 -62 22 -106 42 l-80 35 -195 3 c-107 2 -223 -1 -257 -6z m402 -576 c22
-8 65 -24 97 -35 56 -20 93 -54 183 -165 l30 -37 0 -153 c0 -151 0 -153 -26
-181 -15 -15 -34 -42 -43 -60 -9 -18 -26 -38 -39 -44 -12 -6 -31 -22 -42 -36
-16 -19 -40 -27 -129 -43 -132 -24 -193 -25 -309 -5 -111 20 -132 28 -177 69
-21 18 -42 35 -47 37 -6 2 -30 42 -54 89 -41 82 -43 89 -43 175 0 85 2 94 39
165 56 109 106 153 218 194 118 44 117 44 217 44 53 1 100 -5 125 -14z"/>
<path d="M2235 5170 c-68 -20 -106 -37 -120 -53 -11 -13 -35 -34 -52 -46 -18
-12 -33 -29 -33 -36 0 -8 -14 -30 -30 -49 -39 -44 -54 -121 -47 -247 4 -85 16
-132 36 -149 3 -3 18 -23 32 -45 35 -53 76 -93 119 -115 19 -10 54 -28 78 -40
38 -20 54 -22 160 -19 109 4 122 6 159 31 22 15 57 33 76 42 20 8 42 27 51 44
8 16 26 36 39 45 17 11 31 38 48 94 31 103 31 203 1 300 -20 63 -31 80 -93
142 -66 65 -76 72 -157 97 -123 38 -152 38 -267 4z"/>
<path d="M3729 5151 c-33 -7 -139 -84 -139 -102 0 -4 -16 -26 -35 -49 -27 -33
-35 -51 -35 -83 0 -37 6 -47 78 -119 118 -119 201 -216 226 -265 9 -18 29 -47
45 -65 15 -18 33 -48 39 -65 6 -18 22 -48 36 -66 14 -18 33 -62 42 -98 9 -35
27 -86 41 -112 20 -41 26 -73 35 -202 15 -214 0 -418 -35 -478 -14 -23 -32
-66 -41 -95 -16 -56 -21 -63 -129 -172 -93 -94 -128 -118 -204 -145 -37 -13
-93 -33 -123 -44 -48 -18 -78 -20 -230 -20 -146 0 -183 3 -225 18 -27 11 -81
30 -118 44 -38 14 -77 32 -86 39 -83 61 -106 82 -131 116 -16 22 -34 43 -40
47 -5 3 -21 27 -34 53 -13 26 -33 55 -45 66 -11 10 -27 42 -35 70 -8 28 -27
66 -41 85 -14 19 -25 40 -25 46 0 6 -7 35 -15 63 -14 45 -22 55 -58 74 -56 29
-146 30 -202 3 -36 -18 -42 -27 -62 -87 -11 -37 -31 -79 -42 -94 -12 -15 -26
-44 -31 -65 -6 -20 -26 -56 -45 -79 -19 -23 -35 -46 -35 -52 0 -15 -187 -198
-202 -198 -8 0 -30 -14 -51 -31 -20 -16 -65 -38 -99 -49 -35 -10 -96 -30 -137
-45 -74 -27 -75 -27 -300 -23 -217 4 -229 6 -295 32 -37 15 -89 31 -115 37
-26 5 -62 20 -80 32 -19 12 -48 31 -65 42 -46 29 -120 114 -136 155 -7 19 -19
42 -25 50 -28 35 -37 66 -45 167 -11 136 2 277 28 313 11 14 29 44 40 66 21
41 58 77 145 140 62 45 162 60 295 46 83 -9 93 -12 137 -48 54 -45 105 -136
105 -188 0 -21 -17 -67 -43 -118 -40 -78 -45 -83 -92 -101 -79 -29 -78 -28
-73 -143 5 -120 19 -148 76 -163 41 -12 83 -4 123 23 14 8 53 23 89 32 40 10
78 28 98 45 18 16 39 29 46 29 16 0 104 85 153 147 19 23 39 66 48 104 9 35
24 77 33 94 24 47 21 206 -6 267 -11 26 -24 68 -28 93 -3 25 -17 60 -30 78
-13 17 -34 48 -47 67 -23 33 -74 82 -149 141 -18 14 -58 34 -88 44 -30 10 -73
27 -95 39 -37 19 -56 21 -230 21 -185 0 -191 -1 -240 -26 -27 -14 -72 -32
-100 -38 -27 -7 -63 -23 -80 -35 -16 -13 -45 -31 -64 -41 -40 -20 -196 -177
-218 -219 -8 -16 -28 -47 -43 -68 -16 -22 -32 -54 -35 -71 -4 -18 -20 -55 -36
-84 -42 -73 -74 -321 -65 -508 10 -220 32 -372 65 -435 15 -30 31 -71 35 -91
3 -21 18 -54 31 -74 14 -20 36 -58 49 -84 14 -26 32 -53 41 -61 9 -7 23 -27
32 -44 8 -17 32 -48 52 -68 20 -20 43 -44 51 -52 40 -41 109 -95 146 -114 22
-11 46 -28 53 -36 8 -9 39 -24 70 -32 31 -9 78 -28 104 -42 59 -30 147 -41
347 -41 199 -1 302 11 375 44 33 15 83 34 110 42 28 8 61 25 75 38 14 13 42
31 62 39 21 9 42 25 48 36 6 11 24 27 41 35 16 9 35 27 41 39 5 13 21 30 34
37 13 7 33 29 45 48 12 20 27 40 35 44 8 4 24 27 35 50 12 23 34 57 50 77 15
19 31 47 34 62 4 14 22 49 40 77 19 31 35 71 39 100 8 60 32 85 53 56 35 -49
84 -140 93 -176 6 -21 21 -51 34 -66 13 -16 31 -46 40 -68 10 -22 28 -51 40
-65 13 -14 35 -43 49 -65 46 -71 183 -198 253 -233 22 -11 46 -28 53 -36 8 -9
39 -23 70 -32 31 -9 75 -27 97 -40 60 -34 199 -48 409 -41 173 6 231 16 275
47 14 10 51 25 82 34 31 9 63 24 70 34 7 10 27 27 43 37 40 24 192 182 212
220 9 17 28 46 43 65 16 19 33 51 39 71 6 20 22 51 36 69 13 18 31 63 39 99 9
37 26 92 40 122 16 36 28 88 36 154 5 55 22 170 36 255 25 143 26 170 21 350
-4 133 -12 225 -26 290 -10 52 -22 129 -26 170 -10 110 -22 164 -46 217 -12
27 -28 75 -34 109 -7 33 -29 91 -49 128 -20 37 -36 76 -36 86 0 10 -11 31 -24
47 -13 15 -33 47 -45 71 -24 48 -160 184 -209 211 -24 13 -169 21 -213 12z"/>
<path d="M4925 3296 c-43 -17 -67 -33 -83 -57 -13 -19 -33 -44 -45 -57 -18
-19 -23 -38 -26 -103 -4 -89 2 -102 57 -125 31 -13 85 -53 136 -101 10 -10 38
-53 63 -95 l44 -77 6 -123 c7 -163 -9 -324 -41 -409 -14 -37 -30 -96 -36 -133
-7 -38 -23 -83 -40 -110 -16 -25 -34 -64 -40 -88 -6 -24 -24 -59 -39 -78 -16
-19 -31 -45 -35 -57 -4 -13 -23 -41 -42 -64 -19 -22 -34 -45 -34 -50 0 -5 -22
-35 -50 -66 -27 -32 -63 -74 -80 -93 -73 -84 -202 -204 -270 -250 -87 -58
-115 -79 -146 -104 -16 -13 -55 -35 -85 -49 -29 -13 -60 -31 -67 -40 -8 -9
-37 -23 -65 -33 -29 -9 -61 -24 -72 -34 -28 -25 -54 -36 -100 -45 -22 -3 -63
-20 -91 -36 -28 -16 -82 -35 -120 -44 -38 -8 -96 -26 -129 -39 -37 -15 -107
-31 -181 -41 -67 -8 -155 -24 -195 -35 -182 -50 -679 -47 -879 4 -52 14 -122
27 -155 31 -33 4 -84 13 -114 21 -30 9 -64 13 -76 10 -64 -16 -119 -193 -83
-270 15 -35 41 -50 125 -75 39 -12 83 -31 98 -43 17 -14 56 -26 108 -34 44 -7
107 -25 140 -39 46 -21 90 -30 199 -41 77 -8 165 -21 197 -29 139 -38 652 -44
786 -10 33 8 130 24 215 35 112 15 169 27 210 46 30 14 88 32 129 39 41 8 81
21 90 29 25 22 73 43 114 50 20 4 52 20 70 35 17 16 50 34 72 41 22 7 51 23
65 35 14 13 41 31 60 40 19 10 52 33 73 51 20 19 42 34 47 34 14 0 197 166
256 231 83 93 159 193 201 263 10 16 33 52 52 80 18 28 39 67 46 88 8 20 25
53 38 75 14 21 31 58 37 83 7 24 23 67 37 94 14 27 33 91 43 141 11 50 28 114
39 143 23 57 35 169 51 452 9 161 8 229 -5 389 -17 211 -25 259 -48 295 -9 13
-23 52 -32 87 -12 44 -33 85 -68 134 -61 85 -65 88 -147 120 -79 30 -107 30
-185 1z"/>
<path d="M9905 3294 c-96 -39 -139 -99 -149 -211 -8 -85 0 -107 50 -128 19 -8
47 -25 62 -39 15 -13 46 -40 69 -60 39 -35 52 -59 109 -206 8 -22 13 -80 14
-161 0 -102 -5 -145 -24 -222 -13 -52 -30 -130 -36 -173 -8 -53 -23 -100 -45
-141 -18 -35 -36 -80 -40 -102 -3 -21 -15 -48 -26 -60 -11 -12 -31 -44 -44
-72 -12 -28 -33 -61 -45 -74 -12 -12 -29 -37 -38 -53 -46 -82 -219 -270 -342
-370 -41 -33 -91 -74 -110 -90 -19 -16 -49 -36 -66 -45 -17 -9 -36 -23 -43
-31 -7 -9 -38 -27 -69 -41 -32 -15 -66 -35 -77 -45 -12 -11 -43 -26 -69 -34
-27 -8 -60 -26 -75 -39 -15 -14 -50 -30 -81 -37 -30 -7 -79 -25 -108 -41 -29
-16 -84 -36 -122 -44 -38 -8 -96 -26 -128 -39 -37 -16 -105 -31 -179 -41 -67
-8 -154 -24 -194 -35 -194 -53 -718 -47 -904 9 -33 10 -89 22 -125 26 -36 3
-88 12 -117 20 -89 22 -138 1 -148 -64 -3 -20 -11 -64 -17 -99 -19 -102 9
-137 141 -177 29 -9 66 -25 80 -36 16 -11 63 -26 109 -34 45 -8 109 -26 144
-41 47 -20 96 -30 201 -40 77 -8 164 -21 196 -29 153 -41 636 -45 807 -6 49
11 147 27 217 35 94 11 143 22 194 44 37 16 91 33 118 37 28 4 77 22 110 40
33 18 76 36 95 40 19 4 51 19 70 34 19 15 52 33 73 40 21 7 50 23 65 35 15 13
43 31 62 41 39 20 55 32 229 182 68 59 136 123 150 143 14 19 36 46 49 60 60
65 112 132 112 143 0 8 13 26 30 42 16 15 35 44 41 64 7 20 25 51 40 68 15 18
33 52 39 75 7 24 24 63 40 88 16 25 32 63 35 85 4 22 22 74 40 115 21 47 37
105 44 156 5 45 19 104 31 133 31 81 42 212 42 541 0 321 -5 370 -46 475 -13
33 -27 81 -31 108 -4 26 -18 62 -31 80 -13 17 -30 47 -39 66 -24 52 -88 108
-158 135 -78 32 -106 32 -182 0z"/>
</g>
</svg>
